<mxfile host="app.diagrams.net" modified="2023-04-28T03:50:29.100Z" agent="Mozilla/5.0 (Windows NT 10.0; Win64; x64) AppleWebKit/537.36 (KHTML, like Gecko) Chrome/112.0.0.0 Safari/537.36" etag="zSzpkLDM-Pw2Wl_bxQiD" version="21.1.4" type="github">
  <diagram id="C5RBs43oDa-KdzZeNtuy" name="Page-1">
    <mxGraphModel dx="2391" dy="2306" grid="1" gridSize="10" guides="1" tooltips="1" connect="1" arrows="1" fold="1" page="1" pageScale="1" pageWidth="827" pageHeight="1169" math="0" shadow="0">
      <root>
        <mxCell id="WIyWlLk6GJQsqaUBKTNV-0" />
        <mxCell id="WIyWlLk6GJQsqaUBKTNV-1" parent="WIyWlLk6GJQsqaUBKTNV-0" />
        <mxCell id="pcxurhYp8n2T72dtPAna-126" value="nginx" style="whiteSpace=wrap;html=1;aspect=fixed;fontSize=18;" parent="WIyWlLk6GJQsqaUBKTNV-1" vertex="1">
          <mxGeometry x="120" y="90" width="160" height="160" as="geometry" />
        </mxCell>
        <mxCell id="pcxurhYp8n2T72dtPAna-131" value="HTTP" style="edgeStyle=orthogonalEdgeStyle;rounded=0;orthogonalLoop=1;jettySize=auto;html=1;strokeColor=#000000;fontSize=18;fontColor=#000000;" parent="WIyWlLk6GJQsqaUBKTNV-1" source="pcxurhYp8n2T72dtPAna-2" target="pcxurhYp8n2T72dtPAna-126" edge="1">
          <mxGeometry relative="1" as="geometry" />
        </mxCell>
        <mxCell id="pcxurhYp8n2T72dtPAna-2" value="browser" style="swimlane;" parent="WIyWlLk6GJQsqaUBKTNV-1" vertex="1">
          <mxGeometry x="50" y="-260" width="300" height="210" as="geometry">
            <mxRectangle x="100" y="110" width="350" height="230" as="alternateBounds" />
          </mxGeometry>
        </mxCell>
        <mxCell id="pcxurhYp8n2T72dtPAna-8" value="" style="edgeStyle=segmentEdgeStyle;endArrow=classic;html=1;rounded=0;entryX=0.5;entryY=0;entryDx=0;entryDy=0;" parent="WIyWlLk6GJQsqaUBKTNV-1" source="pcxurhYp8n2T72dtPAna-125" target="pcxurhYp8n2T72dtPAna-2" edge="1">
          <mxGeometry width="50" height="50" relative="1" as="geometry">
            <mxPoint x="170" y="10" as="sourcePoint" />
            <mxPoint x="84" y="70" as="targetPoint" />
            <Array as="points" />
          </mxGeometry>
        </mxCell>
        <mxCell id="pcxurhYp8n2T72dtPAna-16" value="" style="dashed=0;outlineConnect=0;html=1;align=center;labelPosition=center;verticalLabelPosition=bottom;verticalAlign=top;shape=mxgraph.weblogos.apache;fontSize=18;" parent="WIyWlLk6GJQsqaUBKTNV-1" vertex="1">
          <mxGeometry x="230" y="190" width="40" height="65.2" as="geometry" />
        </mxCell>
        <mxCell id="pcxurhYp8n2T72dtPAna-92" value="docker-compose" style="group;fillColor=#dae8fc;strokeColor=#6c8ebf;" parent="WIyWlLk6GJQsqaUBKTNV-1" vertex="1" connectable="0">
          <mxGeometry x="590" y="-20" width="260" height="235.2" as="geometry" />
        </mxCell>
        <mxCell id="pcxurhYp8n2T72dtPAna-93" value="" style="rounded=0;whiteSpace=wrap;html=1;fontSize=12;fillColor=#dae8fc;strokeColor=#6c8ebf;" parent="pcxurhYp8n2T72dtPAna-92" vertex="1">
          <mxGeometry width="260" height="218.58736059479554" as="geometry" />
        </mxCell>
        <mxCell id="6GgnMS0bUxHBi9sY7yps-4" value="" style="sketch=0;aspect=fixed;html=1;points=[];align=center;image;fontSize=12;image=img/lib/mscae/Docker.svg;" vertex="1" parent="pcxurhYp8n2T72dtPAna-92">
          <mxGeometry width="24.39" height="20" as="geometry" />
        </mxCell>
        <mxCell id="pcxurhYp8n2T72dtPAna-94" value="" style="group" parent="pcxurhYp8n2T72dtPAna-92" vertex="1" connectable="0">
          <mxGeometry x="39.63666666666666" y="32.498736059479555" width="205.83333333333331" height="65.57620817843866" as="geometry" />
        </mxCell>
        <mxCell id="pcxurhYp8n2T72dtPAna-95" value="&lt;font style=&quot;font-size: 12px;&quot;&gt;service backend 1&lt;/font&gt;" style="rounded=0;whiteSpace=wrap;html=1;fontSize=18;" parent="pcxurhYp8n2T72dtPAna-94" vertex="1">
          <mxGeometry width="205.83333333333331" height="65.57620817843866" as="geometry" />
        </mxCell>
        <mxCell id="pcxurhYp8n2T72dtPAna-96" value="" style="sketch=0;aspect=fixed;html=1;points=[];align=center;image;fontSize=12;image=img/lib/mscae/Docker.svg;" parent="pcxurhYp8n2T72dtPAna-94" vertex="1">
          <mxGeometry width="24.39" height="20" as="geometry" />
        </mxCell>
        <mxCell id="pcxurhYp8n2T72dtPAna-97" value="" style="endArrow=classic;startArrow=classic;html=1;rounded=0;fontSize=12;exitX=0.421;exitY=0;exitDx=0;exitDy=0;exitPerimeter=0;" parent="pcxurhYp8n2T72dtPAna-94" source="pcxurhYp8n2T72dtPAna-99" edge="1">
          <mxGeometry width="50" height="50" relative="1" as="geometry">
            <mxPoint x="32.5" y="120.22304832713755" as="sourcePoint" />
            <mxPoint x="86.66666666666666" y="65.57620817843866" as="targetPoint" />
          </mxGeometry>
        </mxCell>
        <mxCell id="6GgnMS0bUxHBi9sY7yps-2" value="" style="shape=image;html=1;verticalAlign=top;verticalLabelPosition=bottom;labelBackgroundColor=#ffffff;imageAspect=0;aspect=fixed;image=https://cdn1.iconfinder.com/data/icons/science-technology-outline-24-px/24/Chemical_flask_chemistry_conical_flask_flask_laboratory_1-128.png" vertex="1" parent="pcxurhYp8n2T72dtPAna-94">
          <mxGeometry x="184.16666666666666" y="43.71747211895911" width="21.666666666666664" height="21.666666666666664" as="geometry" />
        </mxCell>
        <mxCell id="6GgnMS0bUxHBi9sY7yps-3" value="" style="shape=image;html=1;verticalAlign=top;verticalLabelPosition=bottom;labelBackgroundColor=#ffffff;imageAspect=0;aspect=fixed;image=https://cdn1.iconfinder.com/data/icons/ionicons-fill-vol-2/512/logo-python-128.png" vertex="1" parent="pcxurhYp8n2T72dtPAna-94">
          <mxGeometry x="162.5" y="43.71747211895911" width="21.666666666666664" height="21.666666666666664" as="geometry" />
        </mxCell>
        <mxCell id="pcxurhYp8n2T72dtPAna-98" value="" style="group" parent="pcxurhYp8n2T72dtPAna-92" vertex="1" connectable="0">
          <mxGeometry x="39.63666666666666" y="125.4717843866171" width="205.83333333333331" height="93.1182156133829" as="geometry" />
        </mxCell>
        <mxCell id="pcxurhYp8n2T72dtPAna-99" value="&lt;font style=&quot;font-size: 12px;&quot;&gt;service frontend 1&lt;/font&gt;" style="rounded=0;whiteSpace=wrap;html=1;fontSize=18;" parent="pcxurhYp8n2T72dtPAna-98" vertex="1">
          <mxGeometry width="205.83333333333331" height="65.57620817843866" as="geometry" />
        </mxCell>
        <mxCell id="pcxurhYp8n2T72dtPAna-100" value="" style="sketch=0;aspect=fixed;html=1;points=[];align=center;image;fontSize=12;image=img/lib/mscae/Docker.svg;" parent="pcxurhYp8n2T72dtPAna-98" vertex="1">
          <mxGeometry width="24.39" height="20" as="geometry" />
        </mxCell>
        <mxCell id="6GgnMS0bUxHBi9sY7yps-0" value="" style="shape=image;html=1;verticalAlign=top;verticalLabelPosition=bottom;labelBackgroundColor=#ffffff;imageAspect=0;aspect=fixed;image=https://cdn1.iconfinder.com/data/icons/ionicons-fill-vol-2/512/logo-vue-128.png" vertex="1" parent="pcxurhYp8n2T72dtPAna-98">
          <mxGeometry x="184.16666666666666" y="43.71747211895911" width="21.666666666666664" height="21.666666666666664" as="geometry" />
        </mxCell>
        <mxCell id="6GgnMS0bUxHBi9sY7yps-1" value="" style="dashed=0;outlineConnect=0;html=1;align=center;labelPosition=center;verticalLabelPosition=bottom;verticalAlign=top;shape=mxgraph.weblogos.apache" vertex="1" parent="pcxurhYp8n2T72dtPAna-98">
          <mxGeometry x="162.5" y="43.71747211895911" width="21.666666666666664" height="21.858736059479554" as="geometry" />
        </mxCell>
        <mxCell id="pcxurhYp8n2T72dtPAna-101" value="" style="endArrow=classic;startArrow=classic;html=1;rounded=0;fontSize=12;fontColor=#000000;entryX=0;entryY=0.732;entryDx=0;entryDy=0;entryPerimeter=0;fillColor=#dae8fc;strokeColor=#6c8ebf;" parent="WIyWlLk6GJQsqaUBKTNV-1" target="pcxurhYp8n2T72dtPAna-93" edge="1">
          <mxGeometry width="50" height="50" relative="1" as="geometry">
            <mxPoint x="280" y="140" as="sourcePoint" />
            <mxPoint x="440" y="430" as="targetPoint" />
            <Array as="points">
              <mxPoint x="290" y="140" />
            </Array>
          </mxGeometry>
        </mxCell>
        <mxCell id="6GgnMS0bUxHBi9sY7yps-12" value="HTTP" style="edgeLabel;html=1;align=center;verticalAlign=middle;resizable=0;points=[];" vertex="1" connectable="0" parent="pcxurhYp8n2T72dtPAna-101">
          <mxGeometry x="-0.1032" y="-1" relative="1" as="geometry">
            <mxPoint as="offset" />
          </mxGeometry>
        </mxCell>
        <mxCell id="pcxurhYp8n2T72dtPAna-108" value="" style="group;fillColor=#f8cecc;strokeColor=#b85450;gradientColor=#ea6b66;" parent="WIyWlLk6GJQsqaUBKTNV-1" vertex="1" connectable="0">
          <mxGeometry x="590" y="280" width="270" height="110" as="geometry" />
        </mxCell>
        <mxCell id="pcxurhYp8n2T72dtPAna-106" value="&lt;font style=&quot;font-size: 18px;&quot;&gt;oidc&amp;nbsp;keycloak&lt;/font&gt;" style="rounded=0;whiteSpace=wrap;html=1;fontSize=12;" parent="pcxurhYp8n2T72dtPAna-108" vertex="1">
          <mxGeometry width="270" height="110" as="geometry" />
        </mxCell>
        <mxCell id="pcxurhYp8n2T72dtPAna-107" value="" style="shape=image;html=1;verticalAlign=top;verticalLabelPosition=bottom;labelBackgroundColor=#ffffff;imageAspect=0;aspect=fixed;image=https://cdn2.iconfinder.com/data/icons/bitsies/128/Locked-128.png;fontSize=12;fontColor=#000000;fillColor=#D80073;imageBackground=default;" parent="pcxurhYp8n2T72dtPAna-108" vertex="1">
          <mxGeometry x="210.9375" y="70" width="30" height="30" as="geometry" />
        </mxCell>
        <mxCell id="pcxurhYp8n2T72dtPAna-117" value="&lt;font color=&quot;#000000&quot;&gt;DB2&lt;/font&gt;" style="shape=cylinder3;whiteSpace=wrap;html=1;boundedLbl=1;backgroundOutline=1;size=15;fontSize=18;fontColor=#990000;fillColor=#FFFFFF;" parent="WIyWlLk6GJQsqaUBKTNV-1" vertex="1">
          <mxGeometry x="627" y="-314" width="120" height="150" as="geometry" />
        </mxCell>
        <mxCell id="pcxurhYp8n2T72dtPAna-125" value="" style="sketch=1;outlineConnect=0;fontColor=#ffffff;fillColor=#000000;strokeColor=#A50040;dashed=1;verticalLabelPosition=bottom;verticalAlign=top;align=center;html=1;fontSize=12;fontStyle=0;aspect=fixed;pointerEvents=1;shape=mxgraph.aws4.user;strokeWidth=1;shadow=0;" parent="WIyWlLk6GJQsqaUBKTNV-1" vertex="1">
          <mxGeometry x="90" y="-483" width="78" height="78" as="geometry" />
        </mxCell>
        <mxCell id="6GgnMS0bUxHBi9sY7yps-5" value="TCP/IP" style="endArrow=classic;startArrow=classic;html=1;rounded=0;exitX=0.538;exitY=-0.009;exitDx=0;exitDy=0;exitPerimeter=0;entryX=0.1;entryY=0.5;entryDx=0;entryDy=0;entryPerimeter=0;" edge="1" parent="WIyWlLk6GJQsqaUBKTNV-1" source="pcxurhYp8n2T72dtPAna-93" target="6GgnMS0bUxHBi9sY7yps-8">
          <mxGeometry width="50" height="50" relative="1" as="geometry">
            <mxPoint x="370" y="-110" as="sourcePoint" />
            <mxPoint x="680" y="-110" as="targetPoint" />
          </mxGeometry>
        </mxCell>
        <mxCell id="6GgnMS0bUxHBi9sY7yps-6" value="&lt;font color=&quot;#000000&quot;&gt;DB1&lt;/font&gt;" style="shape=cylinder3;whiteSpace=wrap;html=1;boundedLbl=1;backgroundOutline=1;size=15;fontSize=18;fontColor=#990000;fillColor=#FFFFFF;" vertex="1" parent="WIyWlLk6GJQsqaUBKTNV-1">
          <mxGeometry x="490" y="-314" width="120" height="150" as="geometry" />
        </mxCell>
        <mxCell id="6GgnMS0bUxHBi9sY7yps-7" value="&lt;font color=&quot;#000000&quot;&gt;DB n&lt;/font&gt;" style="shape=cylinder3;whiteSpace=wrap;html=1;boundedLbl=1;backgroundOutline=1;size=15;fontSize=18;fontColor=#990000;fillColor=#FFFFFF;" vertex="1" parent="WIyWlLk6GJQsqaUBKTNV-1">
          <mxGeometry x="850" y="-314" width="120" height="150" as="geometry" />
        </mxCell>
        <mxCell id="6GgnMS0bUxHBi9sY7yps-8" value="" style="shape=curlyBracket;whiteSpace=wrap;html=1;rounded=1;flipH=1;labelPosition=right;verticalLabelPosition=middle;align=left;verticalAlign=middle;direction=north;" vertex="1" parent="WIyWlLk6GJQsqaUBKTNV-1">
          <mxGeometry x="550" y="-150" width="360" height="20" as="geometry" />
        </mxCell>
        <mxCell id="6GgnMS0bUxHBi9sY7yps-10" value="" style="shape=image;html=1;verticalAlign=top;verticalLabelPosition=bottom;labelBackgroundColor=#ffffff;imageAspect=0;aspect=fixed;image=https://cdn4.iconfinder.com/data/icons/essential-app-1/16/dot-more-menu-hide-128.png" vertex="1" parent="WIyWlLk6GJQsqaUBKTNV-1">
          <mxGeometry x="760" y="-280" width="82" height="82" as="geometry" />
        </mxCell>
        <mxCell id="6GgnMS0bUxHBi9sY7yps-11" value="TCP/IP" style="endArrow=classic;startArrow=classic;html=1;rounded=0;exitX=0.333;exitY=-0.011;exitDx=0;exitDy=0;exitPerimeter=0;" edge="1" parent="WIyWlLk6GJQsqaUBKTNV-1" source="pcxurhYp8n2T72dtPAna-106">
          <mxGeometry width="50" height="50" relative="1" as="geometry">
            <mxPoint x="670" y="330" as="sourcePoint" />
            <mxPoint x="680" y="220" as="targetPoint" />
          </mxGeometry>
        </mxCell>
      </root>
    </mxGraphModel>
  </diagram>
</mxfile>
